<svg xmlns="http://www.w3.org/2000/svg" xmlns:xlink="http://www.w3.org/1999/xlink" width="200" zoomAndPan="magnify" viewBox="0 0 150 157.92" height="200" preserveAspectRatio="xMidYMid meet" version="1.0"><defs><clipPath id="d1f4763afb"><path d="M 0.0390625 82 L 37 82 L 37 118 L 0.0390625 118 Z M 0.0390625 82 " clip-rule="nonzero"/></clipPath><clipPath id="e1d0e73692"><path d="M 38 91 L 62 91 L 62 126.464844 L 38 126.464844 Z M 38 91 " clip-rule="nonzero"/></clipPath><clipPath id="a4429e8256"><path d="M 140 112 L 149.960938 112 L 149.960938 118 L 140 118 Z M 140 112 " clip-rule="nonzero"/></clipPath><clipPath id="bd93e5aec6"><path d="M 88 23.769531 L 149.960938 23.769531 L 149.960938 85 L 88 85 Z M 88 23.769531 " clip-rule="nonzero"/></clipPath></defs><g clip-path="url(#d1f4763afb)"><path fill="#00758f" d="M 36.078125 117.210938 L 30.296875 117.210938 C 30.101562 107.421875 29.539062 98.183594 28.613281 89.503906 L 19.753906 117.210938 L 15.351562 117.210938 L 6.589844 89.503906 C 5.945312 97.816406 5.539062 107.054688 5.371094 117.210938 L 0.0390625 117.210938 C 0.378906 104.851562 1.234375 93.261719 2.601562 82.441406 L 9.796875 82.441406 L 18.144531 107.984375 L 26.539062 82.441406 L 33.394531 82.441406 C 34.890625 95.105469 35.777344 106.695312 36.054688 117.210938 Z M 36.078125 117.210938 " fill-opacity="1" fill-rule="nonzero"/></g><g clip-path="url(#e1d0e73692)"><path fill="#00758f" d="M 61.175781 91.558594 C 58.824219 104.394531 55.71875 113.734375 51.855469 119.585938 C 48.855469 124.082031 45.558594 126.324219 41.972656 126.316406 C 40.742188 126.257812 39.566406 125.972656 38.445312 125.460938 L 38.445312 122.363281 C 39.257812 122.472656 40.070312 122.519531 40.886719 122.511719 C 41.625 122.546875 42.339844 122.441406 43.039062 122.203125 C 43.738281 121.960938 44.363281 121.597656 44.925781 121.117188 C 45.496094 120.648438 45.941406 120.082031 46.261719 119.414062 C 46.585938 118.75 46.753906 118.046875 46.765625 117.308594 C 46.527344 115.277344 46.054688 113.304688 45.339844 111.386719 L 38.996094 91.558594 L 44.667969 91.558594 L 49.230469 106.394531 C 50.257812 109.761719 50.683594 112.113281 50.511719 113.441406 C 53.101562 106.351562 54.84375 99.058594 55.734375 91.558594 Z M 61.175781 91.558594 " fill-opacity="1" fill-rule="nonzero"/></g><path fill="#f29111" d="M 86.519531 107.566406 C 86.554688 108.960938 86.289062 110.292969 85.726562 111.566406 C 85.160156 112.839844 84.351562 113.929688 83.296875 114.835938 C 82.078125 115.828125 80.722656 116.566406 79.230469 117.054688 C 77.742188 117.542969 76.210938 117.746094 74.644531 117.664062 C 72.882812 117.648438 71.164062 117.367188 69.488281 116.824219 C 67.8125 116.28125 66.253906 115.5 64.8125 114.484375 L 66.300781 111.496094 C 68.613281 112.765625 71.085938 113.453125 73.71875 113.550781 C 75.503906 113.652344 77.128906 113.191406 78.597656 112.167969 C 79.199219 111.710938 79.667969 111.140625 79.996094 110.460938 C 80.328125 109.777344 80.488281 109.058594 80.476562 108.300781 C 80.476562 106.246094 79.050781 104.484375 76.414062 103.003906 C 73.976562 101.65625 69.09375 98.867188 69.09375 98.867188 C 68.472656 98.484375 67.910156 98.027344 67.40625 97.492188 C 66.90625 96.960938 66.480469 96.375 66.132812 95.730469 C 65.785156 95.082031 65.527344 94.40625 65.359375 93.691406 C 65.191406 92.976562 65.117188 92.253906 65.140625 91.523438 C 65.097656 90.21875 65.332031 88.972656 65.851562 87.773438 C 66.367188 86.578125 67.117188 85.550781 68.09375 84.695312 C 69.152344 83.796875 70.339844 83.125 71.652344 82.671875 C 72.960938 82.222656 74.308594 82.027344 75.695312 82.085938 C 77.25 82.074219 78.769531 82.289062 80.261719 82.726562 C 81.75 83.167969 83.144531 83.816406 84.445312 84.667969 L 83.1875 87.558594 C 81.070312 86.617188 78.851562 86.132812 76.539062 86.113281 C 75.015625 85.992188 73.648438 86.402344 72.4375 87.335938 C 71.949219 87.746094 71.570312 88.242188 71.300781 88.820312 C 71.03125 89.394531 70.890625 90.003906 70.886719 90.640625 C 70.886719 92.699219 72.351562 94.484375 75.046875 95.992188 C 77.488281 97.324219 82.46875 100.175781 82.46875 100.175781 C 85.175781 102.097656 86.519531 104.152344 86.519531 107.519531 Z M 86.519531 107.566406 " fill-opacity="1" fill-rule="nonzero"/><path fill="#f29111" d="M 96.851562 110.25 C 95.460938 107.984375 94.753906 104.347656 94.753906 99.34375 C 94.753906 90.582031 97.402344 86.203125 102.695312 86.210938 C 103.296875 86.171875 103.894531 86.210938 104.488281 86.332031 C 105.078125 86.453125 105.640625 86.652344 106.179688 86.929688 C 106.71875 87.207031 107.207031 87.546875 107.652344 87.957031 C 108.097656 88.367188 108.476562 88.832031 108.796875 89.34375 C 110.203125 91.605469 110.902344 95.210938 110.894531 100.164062 C 110.894531 108.992188 108.25 113.402344 102.964844 113.394531 C 102.363281 113.433594 101.765625 113.390625 101.175781 113.269531 C 100.582031 113.148438 100.019531 112.949219 99.484375 112.671875 C 98.945312 112.398438 98.453125 112.054688 98.011719 111.644531 C 97.566406 111.234375 97.183594 110.773438 96.863281 110.261719 Z M 117.433594 118.042969 L 111.066406 114.898438 C 111.644531 114.429688 112.171875 113.914062 112.652344 113.34375 C 115.351562 110.15625 116.703125 105.433594 116.703125 99.183594 C 116.703125 87.679688 112.230469 81.929688 103.28125 81.929688 C 102.3125 81.875 101.347656 81.933594 100.390625 82.101562 C 99.433594 82.273438 98.503906 82.546875 97.609375 82.929688 C 96.714844 83.3125 95.875 83.789062 95.089844 84.363281 C 94.304688 84.941406 93.59375 85.597656 92.960938 86.335938 C 90.265625 89.53125 88.921875 94.234375 88.921875 100.445312 C 88.921875 106.652344 90.117188 111.140625 92.507812 113.90625 C 94.679688 116.476562 97.972656 117.773438 102.378906 117.773438 C 103.917969 117.789062 105.425781 117.585938 106.90625 117.164062 L 115.175781 121.996094 L 117.433594 118.09375 Z M 117.433594 118.042969 " fill-opacity="1" fill-rule="evenodd"/><path fill="#f29111" d="M 138.175781 117.210938 L 121.742188 117.210938 L 121.742188 82.441406 L 127.269531 82.441406 L 127.269531 112.929688 L 138.175781 112.929688 Z M 138.175781 117.210938 " fill-opacity="1" fill-rule="nonzero"/><g clip-path="url(#a4429e8256)"><path fill="#f29111" d="M 142.117188 117.199219 L 143.03125 117.199219 L 143.03125 113.664062 L 144.253906 113.664062 L 144.253906 112.941406 L 140.882812 112.941406 L 140.882812 113.664062 L 142.105469 113.664062 L 142.105469 117.199219 Z M 149.097656 117.199219 L 149.960938 117.199219 L 149.960938 112.941406 L 148.65625 112.941406 L 147.59375 115.851562 L 146.449219 112.941406 L 145.226562 112.941406 L 145.226562 117.199219 L 146.046875 117.199219 L 146.046875 113.96875 L 147.265625 117.199219 L 147.886719 117.199219 L 149.109375 113.96875 L 149.109375 117.199219 Z M 149.097656 117.199219 " fill-opacity="1" fill-rule="nonzero"/></g><g clip-path="url(#bd93e5aec6)"><path fill="#00758f" d="M 145.117188 70.804688 C 142.328125 70.625 139.628906 71.03125 137.015625 72.027344 C 136.394531 72.285156 135.394531 72.285156 135.308594 73.078125 C 135.636719 73.410156 135.675781 73.960938 135.980469 74.425781 C 136.550781 75.40625 137.269531 76.257812 138.140625 76.984375 C 139.019531 77.65625 139.894531 78.328125 140.824219 78.917969 C 142.445312 79.921875 144.289062 80.507812 145.863281 81.523438 C 146.789062 82.113281 147.703125 82.859375 148.632812 83.496094 C 149.082031 83.824219 149.375 84.375 149.960938 84.582031 L 149.960938 84.460938 C 149.667969 84.082031 149.582031 83.53125 149.289062 83.117188 L 148.070312 81.890625 C 146.839844 80.253906 145.390625 78.839844 143.726562 77.644531 C 142.386719 76.714844 139.457031 75.453125 138.921875 73.972656 L 138.835938 73.886719 C 139.816406 73.746094 140.773438 73.515625 141.714844 73.203125 C 143.140625 72.835938 144.433594 72.921875 145.886719 72.542969 C 146.558594 72.371094 147.230469 72.160156 147.898438 71.953125 L 147.898438 71.574219 C 147.144531 70.816406 146.605469 69.8125 145.8125 69.125 C 143.644531 67.230469 141.347656 65.511719 138.921875 63.960938 C 137.625 63.128906 135.957031 62.578125 134.578125 61.871094 C 134.078125 61.613281 133.246094 61.488281 132.953125 61.0625 C 132.265625 60.046875 131.691406 58.96875 131.234375 57.832031 C 130.011719 55.53125 128.792969 52.933594 127.816406 50.488281 C 127.207031 48.820312 126.503906 47.191406 125.707031 45.605469 C 123.765625 42.296875 121.417969 39.308594 118.664062 36.640625 C 115.914062 33.972656 112.855469 31.722656 109.492188 29.890625 C 107.792969 29.0625 106.011719 28.488281 104.148438 28.175781 C 103.109375 28.175781 102.0625 28.042969 101.023438 28.003906 C 100.34375 27.5625 99.703125 27.074219 99.097656 26.535156 C 96.65625 25.019531 90.554688 21.75 88.824219 26.070312 C 87.699219 28.8125 90.496094 31.492188 91.457031 32.875 C 92.265625 33.855469 92.972656 34.90625 93.582031 36.019531 C 93.875 36.742188 93.960938 37.503906 94.253906 38.25 C 94.867188 40.167969 95.589844 42.046875 96.425781 43.878906 C 96.878906 44.785156 97.394531 45.65625 97.972656 46.484375 C 98.304688 46.949219 98.890625 47.160156 99.011719 47.917969 C 98.550781 48.921875 98.234375 49.96875 98.058594 51.0625 C 96.546875 55.8125 97.132812 61.6875 99.28125 65.171875 C 99.9375 66.226562 101.535156 68.539062 103.660156 67.621094 C 105.539062 66.875 105.125 64.476562 105.671875 62.382812 C 105.796875 61.871094 105.671875 61.539062 105.953125 61.160156 L 105.953125 61.234375 C 106.539062 62.457031 107.171875 63.546875 107.675781 64.722656 C 109.164062 66.921875 110.96875 68.824219 113.089844 70.425781 C 114.089844 71.183594 114.882812 72.480469 116.140625 72.945312 L 116.140625 72.871094 L 116.054688 72.871094 C 115.773438 72.546875 115.449219 72.265625 115.09375 72.027344 C 114.296875 71.246094 113.574219 70.40625 112.921875 69.507812 C 111.144531 67.089844 109.589844 64.539062 108.246094 61.855469 C 107.578125 60.546875 107.027344 59.117188 106.453125 57.816406 C 106.199219 57.316406 106.199219 56.59375 105.78125 56.3125 C 104.992188 57.171875 104.3125 58.109375 103.746094 59.128906 C 103.042969 61.183594 102.636719 63.296875 102.523438 65.46875 C 102.355469 65.46875 102.441406 65.46875 102.355469 65.554688 C 101.023438 65.210938 100.5625 63.828125 100.0625 62.652344 C 99.410156 60.851562 99.050781 58.992188 98.988281 57.078125 C 98.921875 55.160156 99.15625 53.285156 99.683594 51.441406 C 99.976562 50.5625 101.230469 47.769531 100.71875 46.949219 C 100.476562 46.144531 99.632812 45.726562 99.183594 45.054688 C 98.59375 44.210938 98.09375 43.316406 97.679688 42.375 C 96.679688 40.011719 96.167969 37.417969 95.09375 35.03125 C 94.484375 33.894531 93.785156 32.820312 92.996094 31.800781 C 92.125 30.785156 91.359375 29.695312 90.703125 28.53125 C 90.496094 28.066406 90.203125 27.308594 90.53125 26.804688 C 90.558594 26.660156 90.625 26.535156 90.734375 26.433594 C 90.839844 26.332031 90.96875 26.273438 91.117188 26.253906 C 91.667969 25.789062 93.203125 26.378906 93.753906 26.632812 C 95.242188 27.199219 96.648438 27.925781 97.972656 28.8125 C 98.558594 29.230469 99.195312 30.035156 99.925781 30.234375 L 100.804688 30.234375 C 102.148438 30.527344 103.648438 30.316406 104.902344 30.699219 C 107.03125 31.40625 109.039062 32.375 110.917969 33.597656 C 113.683594 35.371094 116.171875 37.476562 118.378906 39.914062 C 120.589844 42.351562 122.441406 45.035156 123.9375 47.964844 C 124.449219 48.921875 124.65625 49.8125 125.15625 50.816406 C 126.035156 52.875 127.121094 54.980469 128 56.9375 C 128.773438 58.925781 129.761719 60.804688 130.964844 62.566406 C 131.601562 63.449219 134.101562 63.914062 135.222656 64.378906 C 136.210938 64.734375 137.171875 65.140625 138.113281 65.601562 C 139.53125 66.484375 140.945312 67.488281 142.289062 68.453125 C 142.945312 68.96875 145.046875 70.007812 145.167969 70.902344 Z M 145.117188 70.804688 " fill-opacity="1" fill-rule="evenodd"/></g><path fill="#00758f" d="M 102.523438 34.296875 C 101.941406 34.289062 101.367188 34.363281 100.804688 34.515625 L 100.804688 34.601562 L 100.890625 34.601562 C 101.296875 35.203125 101.746094 35.777344 102.230469 36.316406 C 102.5625 36.988281 102.855469 37.660156 103.183594 38.335938 L 103.269531 38.25 C 103.585938 38 103.820312 37.6875 103.976562 37.316406 C 104.132812 36.945312 104.1875 36.558594 104.148438 36.15625 C 103.902344 35.863281 103.855469 35.570312 103.648438 35.273438 C 103.441406 34.980469 102.855469 34.652344 102.523438 34.308594 Z M 102.523438 34.296875 " fill-opacity="1" fill-rule="evenodd"/></svg>