<svg xmlns="http://www.w3.org/2000/svg" xmlns:xlink="http://www.w3.org/1999/xlink" width="200" zoomAndPan="magnify" viewBox="0 0 150 157.92" height="200" preserveAspectRatio="xMidYMid meet" version="1.0"><defs><clipPath id="fd73e2753e"><path d="M 0.0390625 0 L 149.960938 0 L 149.960938 149.925781 L 0.0390625 149.925781 Z M 0.0390625 0 " clip-rule="nonzero"/></clipPath></defs><g clip-path="url(#fd73e2753e)"><path fill="#d97757" d="M 29.96875 99.59375 L 59.339844 83.121094 L 59.824219 81.679688 L 59.339844 80.875 L 57.890625 80.875 L 52.964844 80.578125 L 36.179688 80.128906 L 21.65625 79.527344 L 7.535156 78.78125 L 3.984375 78.03125 L 0.675781 73.613281 L 1 71.445312 L 3.984375 69.421875 L 8.261719 69.796875 L 17.703125 70.46875 L 31.90625 71.445312 L 42.152344 72.042969 L 57.40625 73.613281 L 59.824219 73.613281 L 60.148438 72.640625 L 59.339844 72.042969 L 58.695312 71.445312 L 44.007812 61.484375 L 28.113281 51.003906 L 19.800781 44.941406 L 15.363281 41.871094 L 13.101562 39.027344 L 12.132812 32.738281 L 16.167969 28.246094 L 21.65625 28.621094 L 23.027344 28.992188 L 28.597656 33.261719 L 40.457031 42.46875 L 55.953125 53.851562 L 58.210938 55.722656 L 59.121094 55.105469 L 59.261719 54.671875 L 58.210938 52.953125 L 49.820312 37.753906 L 40.863281 22.253906 L 36.828125 15.816406 L 35.777344 12 C 35.371094 10.394531 35.132812 9.070312 35.132812 7.433594 L 39.730469 1.144531 L 42.316406 0.320312 L 48.527344 1.144531 L 51.109375 3.390625 L 54.984375 12.222656 L 61.195312 26.074219 L 70.878906 44.941406 L 73.703125 50.554688 L 75.238281 55.722656 L 75.804688 57.292969 L 76.769531 57.292969 L 76.769531 56.394531 L 77.578125 45.765625 L 79.03125 32.738281 L 80.484375 15.964844 L 80.96875 11.25 L 83.308594 5.558594 L 87.988281 2.492188 L 91.621094 4.210938 L 94.605469 8.480469 L 94.203125 11.25 L 92.425781 22.78125 L 88.957031 40.824219 L 86.695312 52.953125 L 87.988281 52.953125 L 89.519531 51.378906 L 95.652344 43.292969 L 105.902344 30.417969 L 110.421875 25.324219 L 115.746094 19.710938 L 119.136719 17.015625 L 125.59375 17.015625 L 130.273438 24.050781 L 128.175781 31.316406 L 121.558594 39.699219 L 116.070312 46.8125 L 108.203125 57.351562 L 103.320312 65.828125 L 103.757812 66.527344 L 104.933594 66.425781 L 122.6875 62.609375 L 132.289062 60.886719 L 143.75 58.941406 L 148.914062 61.335938 L 149.476562 63.808594 L 147.460938 68.824219 L 135.195312 71.816406 L 120.832031 74.738281 L 99.441406 79.773438 L 99.203125 79.964844 L 99.484375 80.378906 L 109.128906 81.25 L 113.246094 81.476562 L 123.332031 81.476562 L 142.132812 82.898438 L 147.058594 86.117188 L 149.960938 90.085938 L 149.476562 93.15625 L 141.890625 96.972656 L 131.726562 94.578125 L 107.917969 88.886719 L 99.769531 86.867188 L 98.640625 86.867188 L 98.640625 87.539062 L 105.417969 94.203125 L 117.925781 105.433594 L 133.5 119.957031 L 134.308594 123.550781 L 132.289062 126.394531 L 130.191406 126.097656 L 116.472656 115.765625 L 111.148438 111.125 L 99.203125 101.015625 L 98.398438 101.015625 L 98.398438 102.066406 L 101.140625 106.105469 L 115.746094 128.042969 L 116.472656 134.78125 L 115.425781 136.953125 L 111.632812 138.300781 L 107.515625 137.550781 L 98.882812 125.496094 L 90.085938 112.023438 L 82.984375 99.894531 L 82.128906 100.433594 L 77.902344 145.5625 L 75.964844 147.882812 L 71.445312 149.605469 L 67.652344 146.761719 L 65.636719 142.117188 L 67.652344 132.910156 L 70.074219 120.929688 L 72.011719 111.421875 L 73.785156 99.59375 L 74.871094 95.640625 L 74.773438 95.378906 L 73.90625 95.523438 L 64.988281 107.753906 L 51.433594 126.097656 L 40.699219 137.550781 L 38.117188 138.601562 L 33.679688 136.277344 L 34.082031 132.160156 L 36.585938 128.492188 L 51.433594 109.625 L 60.390625 97.871094 L 66.164062 91.125 L 66.105469 90.148438 L 65.789062 90.121094 L 26.335938 115.839844 L 19.316406 116.738281 L 16.25 113.894531 L 16.652344 109.25 L 18.105469 107.753906 Z M 29.96875 99.59375 " fill-opacity="1" fill-rule="nonzero"/></g></svg>