<svg xmlns="http://www.w3.org/2000/svg" xmlns:xlink="http://www.w3.org/1999/xlink" width="200" zoomAndPan="magnify" viewBox="0 0 150 157.92" height="200" preserveAspectRatio="xMidYMid meet" version="1.0"><defs><clipPath id="5f84c6eeae"><path d="M 0.0390625 0 L 149.960938 0 L 149.960938 149.925781 L 0.0390625 149.925781 Z M 0.0390625 0 " clip-rule="nonzero"/></clipPath></defs><g clip-path="url(#5f84c6eeae)"><path fill="#f7df1e" d="M 0.0390625 0 L 149.960938 0 L 149.960938 149.925781 L 0.0390625 149.925781 Z M 0.0390625 0 " fill-opacity="1" fill-rule="evenodd"/></g><path fill="#000000" d="M 39.457031 125.289062 L 50.925781 118.347656 C 53.136719 122.277344 55.148438 125.59375 59.980469 125.59375 C 64.605469 125.59375 67.53125 123.789062 67.53125 116.738281 L 67.53125 68.824219 L 81.625 68.824219 L 81.625 116.933594 C 81.625 131.523438 73.070312 138.164062 60.589844 138.164062 C 49.316406 138.164062 42.777344 132.332031 39.457031 125.289062 Z M 89.273438 123.777344 L 100.742188 117.140625 C 103.769531 122.070312 107.6875 125.691406 114.628906 125.691406 C 120.460938 125.691406 124.195312 122.777344 124.195312 118.75 C 124.195312 113.917969 120.375 112.210938 113.933594 109.394531 L 110.40625 107.878906 C 100.242188 103.546875 93.496094 98.121094 93.496094 86.652344 C 93.496094 76.085938 101.550781 68.03125 114.128906 68.03125 C 123.082031 68.03125 129.527344 71.15625 134.148438 79.304688 L 123.179688 86.34375 C 120.765625 82.015625 118.15625 80.304688 114.128906 80.304688 C 110.003906 80.304688 107.382812 82.917969 107.382812 86.34375 C 107.382812 90.566406 109.992188 92.289062 116.03125 94.898438 L 119.558594 96.410156 C 131.539062 101.546875 138.273438 106.78125 138.273438 118.554688 C 138.273438 131.230469 128.304688 138.175781 114.921875 138.175781 C 101.855469 138.175781 93.398438 131.929688 89.273438 123.777344 Z M 89.273438 123.777344 " fill-opacity="1" fill-rule="evenodd"/></svg>